<?xml version="1.0" standalone="no"?>
<!DOCTYPE svg PUBLIC "-//W3C//DTD SVG 20010904//EN"
 "http://www.w3.org/TR/2001/REC-SVG-20010904/DTD/svg10.dtd">
<svg version="1.0" xmlns="http://www.w3.org/2000/svg"
 width="1024.000000pt" height="1024.000000pt" viewBox="0 0 1024.000000 1024.000000"
 preserveAspectRatio="xMidYMid meet">

<g transform="translate(0.000000,1024.000000) scale(0.100000,-0.100000)"
fill="#000000" stroke="none">
<path d="M3896 7998 c-242 -615 -2286 -5862 -2286 -5869 0 -5 432 -8 1021 -7
l1022 3 98 280 c54 154 131 371 170 483 l71 202 1108 0 1108 0 19 -62 c10 -35
75 -253 143 -485 l125 -423 1069 0 c1013 0 1068 1 1064 17 -6 23 -1687 4333
-1696 4350 -5 7 -166 -183 -425 -500 -230 -282 -412 -513 -405 -515 8 -1 258
27 558 63 300 36 553 64 563 63 13 -2 -215 -234 -785 -798 -1073 -1063 -1402
-1387 -1396 -1375 3 6 189 324 412 709 224 384 405 701 402 703 -3 3 -244 -20
-536 -51 -291 -32 -537 -56 -545 -54 -11 2 227 425 835 1486 l850 1483 -82
210 -81 209 -1177 0 -1176 0 -48 -122z"/>
</g>
</svg>
